<?xml version="1.0" encoding="UTF-8" standalone="no"?>
<svg
   xmlns:dc="http://purl.org/dc/elements/1.1/"
   xmlns:cc="http://creativecommons.org/ns#"
   xmlns:rdf="http://www.w3.org/1999/02/22-rdf-syntax-ns#"
   xmlns:svg="http://www.w3.org/2000/svg"
   xmlns="http://www.w3.org/2000/svg"
   xmlns:xlink="http://www.w3.org/1999/xlink"
   xmlns:sodipodi="http://sodipodi.sourceforge.net/DTD/sodipodi-0.dtd"
   xmlns:inkscape="http://www.inkscape.org/namespaces/inkscape"
   width="250"
   height="250"
   version="1.1"
   id="svg64"
   sodipodi:docname="icon.svg"
   inkscape:version="0.92.5 (2060ec1f9f, 2020-04-08)">
  <metadata
     id="metadata70">
    <rdf:RDF>
      <cc:Work
         rdf:about="">
        <dc:format>image/svg+xml</dc:format>
        <dc:type
           rdf:resource="http://purl.org/dc/dcmitype/StillImage" />
      </cc:Work>
    </rdf:RDF>
  </metadata>
  <defs
     id="defs68">
    <style
       id="style2">.cls-1{fill:#313e5b;}.cls-2{fill:url(#Gradiente_sem_nome_9);}.cls-3{fill:url(#Gradiente_sem_nome_310);}.cls-4{fill:url(#Gradiente_sem_nome_9-2);}.cls-5{fill:url(#Gradiente_sem_nome_9-3);}.cls-6{fill:url(#Gradiente_sem_nome_9-4);}</style>
    <linearGradient
       gradientUnits="userSpaceOnUse"
       y2="19.21"
       x2="25.17"
       y1="19.21"
       x1="115.55"
       id="Gradiente_sem_nome_9">
      <stop
         id="stop4"
         stop-color="#4fcdd6"
         offset="0" />
      <stop
         id="stop6"
         stop-color="#2ca6be"
         offset="1" />
    </linearGradient>
    <linearGradient
       gradientUnits="userSpaceOnUse"
       y2="68.65"
       x2="100.2"
       y1="68.65"
       x1="31.26"
       id="Gradiente_sem_nome_310">
      <stop
         id="stop9"
         stop-color="#fbb03b"
         offset="0" />
      <stop
         id="stop11"
         stop-color="#e68200"
         offset="1" />
    </linearGradient>
    <linearGradient
       xlink:href="#Gradiente_sem_nome_9"
       y2="77.16"
       x2="115.55"
       y1="77.16"
       x1="6.69"
       id="Gradiente_sem_nome_9-2"
       gradientTransform="translate(10.716983,-2.2598265)" />
    <linearGradient
       xlink:href="#Gradiente_sem_nome_9"
       y2="67.87"
       x2="154.33"
       y1="67.87"
       x1="110.4"
       id="Gradiente_sem_nome_9-3"
       gradientTransform="translate(10.716983,-2.2598265)" />
    <linearGradient
       xlink:href="#Gradiente_sem_nome_9"
       gradientTransform="matrix(1,0,0,-1,10.716983,-561.61982)"
       y2="-675.16"
       x2="25.59"
       y1="-675.16"
       x1="115.55"
       id="Gradiente_sem_nome_9-4" />
    <linearGradient
       inkscape:collect="always"
       xlink:href="#Gradiente_sem_nome_9"
       id="linearGradient954"
       gradientUnits="userSpaceOnUse"
       x1="115.55"
       y1="19.21"
       x2="25.17"
       y2="19.21"
       gradientTransform="translate(10.716983,-2.2598265)" />
  </defs>
  <sodipodi:namedview
     pagecolor="#ffffff"
     bordercolor="#666666"
     borderopacity="1"
     objecttolerance="10"
     gridtolerance="10"
     guidetolerance="10"
     inkscape:pageopacity="0"
     inkscape:pageshadow="2"
     inkscape:window-width="2560"
     inkscape:window-height="1376"
     id="namedview66"
     showgrid="false"
     inkscape:zoom="1.3350176"
     inkscape:cx="432.14358"
     inkscape:cy="-1.3757522"
     inkscape:window-x="1920"
     inkscape:window-y="27"
     inkscape:window-maximized="1"
     inkscape:current-layer="g952" />
  <!-- Created with Method Draw - http://github.com/duopixel/Method-Draw/ -->
  <g
     id="g5"
     transform="translate(29.962152,0.7490538)">
    <title
       id="title2">background</title>
    <rect
       x="-1"
       y="-1"
       width="252"
       height="252"
       id="canvas_background"
       style="fill:none" />
  </g>
  <g
     id="g952"
     transform="matrix(1.5633437,0,0,1.5633437,-15.779235,22.85126)">
    <path
       id="path57"
       d="m 126.26698,18.550174 -0.09,0.06 -12.94,13 a 45.78,45.78 0 0 0 -30.359997,-12.36 c -0.38,0 -0.78,0 -1.18,0 -0.4,0 -0.68,0 -1,0 -0.32,0 -0.8,0 -1.2,0 a 45.85,45.85 0 0 0 -30.59,13.85 l -13,-13 c 0.49,-0.49 1,-1 1.49,-1.47 a 64.28,64.28 0 0 1 37.55,-17.4500005 c 1.72,-0.18 3.43,-0.29000001 5.17,-0.35000001 0.53,0 1,0 1.58,0 h 1.74 l 1.28,0.06 c 1.36,0 2.7,0.15000001 4,0.29000001 A 64.16,64.16 0 0 1 126.26698,18.550174 Z"
       class="cls-2"
       inkscape:connector-curvature="0"
       style="fill:url(#linearGradient954)" />
    <polygon
       id="polygon59"
       points="61.7,69.68 87.51,39.03 100.2,50.34 61.3,98.27 31.25,59.62 43.64,47.48 "
       class="cls-3"
       style="fill:url(#Gradiente_sem_nome_310)"
       transform="translate(17.406983,0.80017349)" />
    <path
       id="path61"
       d="m 126.26698,111.99018 c 0,0 -0.06,0.06 -0.09,0.07 a 63.94,63.94 0 0 1 -37.399997,17.29 c -1.33,0.15 -2.67,0.25 -4,0.3 l -1.31,0.06 h -3.35 c -1.74,-0.06 -3.45,-0.17 -5.17,-0.36 a 64.46,64.46 0 0 1 -39.06,-109.270006 l 13,13 a 46.05,46.05 0 0 0 30.58,78.150006 h 1.2 2.19 A 45.93,45.93 0 0 0 113.13698,98.970171 l 0.08,-0.07 z"
       class="cls-4"
       inkscape:connector-curvature="0"
       style="fill:url(#Gradiente_sem_nome_9-2)" />
    <path
       id="path63"
       d="m 165.04698,65.530174 c 0,0 -21.94,27.8 -30.67,38.000006 l -13.26,-13.240006 c 5,-6.93 20.93,-24.76 20.93,-24.76 0,0 -15.55,-17.89 -20.81,-24.59 l 13.26,-13.27 c 8.61,10 30.55,37.86 30.55,37.86 z"
       class="cls-5"
       inkscape:connector-curvature="0"
       style="fill:url(#Gradiente_sem_nome_9-3)" />
    <path
       id="path65"
       d="m 126.26698,111.95018 -0.09,-0.06 -12.87,-12.900009 A 45.63,45.63 0 0 1 83.086983,111.26018 h -2.19 c -0.4,0 -0.79,0 -1.19,0 a 45.7,45.7 0 0 1 -30.44,-13.790006 l -13,13.000006 c 0.5,0.5 1,1 1.49,1.47 a 63.92,63.92 0 0 0 37.43,17.3 c 1.71,0.18 3.42,0.29 5.15,0.34 0.52,0 1,0 1.57,0 0.57,0 1.16,0 1.74,0 0.43,0 0.86,0 1.29,-0.05 1.35,0 2.69,-0.15 4,-0.29 a 64,64 0 0 0 37.329997,-17.29 z"
       class="cls-6"
       inkscape:connector-curvature="0"
       style="fill:url(#Gradiente_sem_nome_9-4)" />
  </g>
</svg>
